<?xml version="1.0" encoding="iso-8859-1"?>
<!-- Generator: Adobe Illustrator 19.0.0, SVG Export Plug-In . SVG Version: 6.00 Build 0)  -->
<svg version="1.1" id="Capa_1" xmlns="http://www.w3.org/2000/svg" xmlns:xlink="http://www.w3.org/1999/xlink" x="0px" y="0px"
	 viewBox="0 0 512 512" style="enable-background:new 0 0 512 512;" xml:space="preserve">
<g>
	<g>
		<g>
			<path d="M76.801,85.333c0,2.263,0.899,4.433,2.5,6.033c1.6,1.601,3.77,2.5,6.033,2.5c2.263,0,4.433-0.899,6.033-2.5l6.767-6.767
				l6.767,6.767c3.343,3.269,8.693,3.239,11.999-0.067c3.306-3.306,3.336-8.656,0.067-11.999l-6.767-6.767l6.767-6.767
				c3.281-3.341,3.256-8.701-0.054-12.012c-3.311-3.311-8.671-3.335-12.012-0.054l-6.767,6.767L91.366,53.7
				c-3.341-3.281-8.701-3.256-12.012,0.054c-3.311,3.311-3.335,8.671-0.054,12.012l6.767,6.767L79.3,79.3
				C77.7,80.9,76.801,83.07,76.801,85.333z"/>
			<path d="M132.267,145.067c0,2.263,0.899,4.433,2.5,6.033c1.6,1.601,3.77,2.5,6.033,2.5c2.263,0,4.433-0.899,6.033-2.5
				l6.767-6.767l6.767,6.767c3.343,3.269,8.693,3.239,11.999-0.067s3.336-8.656,0.067-11.999l-6.767-6.767l6.767-6.767
				c3.281-3.341,3.256-8.701-0.054-12.012s-8.671-3.335-12.012-0.054l-6.767,6.767l-6.767-6.767
				c-3.341-3.281-8.701-3.256-12.012,0.054s-3.335,8.671-0.054,12.012l6.767,6.767l-6.767,6.767
				C133.166,140.633,132.267,142.804,132.267,145.067z"/>
			<path d="M187.734,85.333c0,2.263,0.899,4.433,2.5,6.033c1.6,1.601,3.77,2.5,6.033,2.5c2.263,0,4.433-0.899,6.033-2.5l6.767-6.767
				l6.767,6.767c3.343,3.269,8.693,3.239,11.999-0.067c3.306-3.306,3.336-8.656,0.067-11.999l-6.767-6.767l6.767-6.767
				c3.281-3.341,3.256-8.701-0.054-12.012c-3.311-3.311-8.671-3.335-12.012-0.054l-6.767,6.767L202.3,53.7
				c-3.341-3.281-8.701-3.256-12.012,0.054c-3.311,3.311-3.335,8.671-0.054,12.012l6.767,6.767l-6.767,6.767
				C188.633,80.9,187.734,83.07,187.734,85.333z"/>
			<path d="M281.601,85.333c0,2.263,0.899,4.433,2.5,6.033c1.6,1.601,3.77,2.5,6.033,2.5s4.433-0.899,6.033-2.5l6.767-6.767
				l6.767,6.767c3.343,3.269,8.693,3.239,11.999-0.067c3.306-3.306,3.336-8.656,0.067-11.999L315,72.533l6.767-6.767
				c3.281-3.341,3.256-8.701-0.054-12.012c-3.311-3.311-8.671-3.335-12.012-0.054l-6.767,6.767l-6.767-6.767
				c-3.341-3.281-8.701-3.256-12.012,0.054c-3.311,3.311-3.335,8.671-0.054,12.012l6.767,6.767L284.1,79.3
				C282.5,80.9,281.601,83.07,281.601,85.333z"/>
			<path d="M337.067,145.067c0,2.263,0.899,4.433,2.5,6.033c1.6,1.601,3.77,2.5,6.033,2.5s4.433-0.899,6.033-2.5l6.767-6.767
				l6.767,6.767c3.343,3.269,8.693,3.239,11.999-0.067c3.306-3.306,3.336-8.656,0.067-11.999l-6.767-6.767l6.767-6.767
				c3.281-3.341,3.256-8.701-0.054-12.012s-8.671-3.335-12.012-0.054l-6.767,6.767l-6.767-6.767
				c-3.341-3.281-8.701-3.256-12.012,0.054s-3.335,8.671-0.054,12.012l6.767,6.767l-6.767,6.767
				C337.966,140.633,337.067,142.804,337.067,145.067z"/>
			<path d="M392.534,85.333c0,2.263,0.899,4.433,2.5,6.033c1.6,1.601,3.77,2.5,6.033,2.5s4.433-0.899,6.033-2.5l6.767-6.767
				l6.767,6.767c3.343,3.269,8.693,3.239,11.999-0.067c3.306-3.306,3.336-8.656,0.067-11.999l-6.767-6.767l6.767-6.767
				c3.281-3.341,3.256-8.701-0.054-12.012c-3.311-3.311-8.671-3.335-12.012-0.054l-6.767,6.767L407.1,53.7
				c-3.341-3.281-8.701-3.256-12.012,0.054c-3.311,3.311-3.335,8.671-0.054,12.012l6.767,6.767l-6.767,6.767
				C393.433,80.9,392.534,83.07,392.534,85.333z"/>
			<path d="M512,307.2c-0.015-14.132-11.468-25.585-25.6-25.6V93.867C486.341,42.05,444.35,0.059,392.533,0H119.467
				C67.65,0.059,25.659,42.05,25.6,93.867V281.6C11.468,281.615,0.015,293.068,0,307.2v34.133c0.02,6.319,2.394,12.404,6.658,17.067
				C2.394,363.063,0.02,369.148,0,375.467v76.8c0.02,6.069,3.272,11.668,8.533,14.692v36.508c-0.001,2.263,0.898,4.434,2.499,6.035
				c1.6,1.6,3.771,2.499,6.035,2.499H51.2c2.263,0.001,4.434-0.898,6.035-2.499c1.6-1.6,2.499-3.771,2.499-6.035v-34.133h392.533
				v34.133c-0.001,2.263,0.898,4.434,2.499,6.035c1.6,1.6,3.771,2.499,6.035,2.499h34.133c2.263,0.001,4.434-0.898,6.035-2.499
				c1.6-1.6,2.499-3.771,2.499-6.035v-36.508c5.262-3.024,8.514-8.623,8.533-14.692v-76.8c-0.02-6.319-2.394-12.404-6.658-17.067
				c4.265-4.663,6.639-10.748,6.658-17.067V307.2z M42.667,93.867c0.048-42.396,34.404-76.752,76.8-76.8h273.067
				c42.396,0.048,76.752,34.404,76.8,76.8V281.6h-17.067v-51.2c-0.023-17.222-10.385-32.746-26.281-39.373
				c1.583-3.757,0.283-8.109-3.102-10.382c-3.384-2.273-7.904-1.831-10.784,1.055l-6.033,6.033h-1.467l-6.033-6.033
				c-2.44-2.44-6.111-3.171-9.299-1.85S384,184.282,384,187.733h-51.2c-0.001-3.451-2.08-6.562-5.268-7.882
				c-3.188-1.32-6.858-0.591-9.298,1.849l-6.033,6.033h-1.467l-6.033-6.033c-2.879-2.888-7.401-3.331-10.786-1.057
				c-3.385,2.274-4.685,6.627-3.101,10.384c-15.896,6.627-26.258,22.151-26.281,39.373v51.2h-17.067v-51.2
				c-0.023-17.222-10.385-32.746-26.281-39.373c1.583-3.757,0.282-8.109-3.102-10.382c-3.384-2.273-7.904-1.831-10.784,1.055
				l-6.033,6.033h-1.467l-6.033-6.033c-2.44-2.44-6.111-3.171-9.299-1.85c-3.189,1.321-5.268,4.432-5.268,7.883H128
				c-0.001-3.451-2.08-6.562-5.268-7.882c-3.188-1.32-6.858-0.591-9.298,1.849l-6.033,6.033h-1.467l-6.033-6.033
				c-2.879-2.888-7.401-3.331-10.786-1.057s-4.685,6.627-3.101,10.384c-15.896,6.627-26.258,22.151-26.281,39.373v51.2H42.667
				V93.867z M435.2,230.4v51.2H281.6v-51.2c0.015-14.132,11.468-25.585,25.6-25.6h102.4
				C423.732,204.815,435.185,216.268,435.2,230.4z M230.4,230.4v51.2H76.8v-51.2c0.015-14.132,11.468-25.585,25.6-25.6h102.4
				C218.932,204.815,230.385,216.268,230.4,230.4z M17.067,307.2c0.005-4.711,3.822-8.529,8.533-8.533h460.8
				c4.711,0.005,8.529,3.822,8.533,8.533v34.133c-0.005,4.711-3.822,8.529-8.533,8.533H25.6c-4.711-0.005-8.529-3.822-8.533-8.533
				V307.2z M42.667,494.933H25.6v-25.6h17.067V494.933z M486.4,494.933h-17.067v-25.6H486.4V494.933z M17.067,452.267v-76.8
				c0.005-4.711,3.822-8.529,8.533-8.533h460.8c4.711,0.005,8.529,3.822,8.533,8.533l0.009,76.8H17.067z"/>
		</g>
	</g>
</g>
<g>
</g>
<g>
</g>
<g>
</g>
<g>
</g>
<g>
</g>
<g>
</g>
<g>
</g>
<g>
</g>
<g>
</g>
<g>
</g>
<g>
</g>
<g>
</g>
<g>
</g>
<g>
</g>
<g>
</g>
</svg>
